<svg width="100" height="83" viewBox="0 0 100 83" fill="none" xmlns="http://www.w3.org/2000/svg">
<g id="Logo">
<rect width="100" height="82.3533" fill="#E5E7EB"/>
<path id="Icon-image" fill-rule="evenodd" clip-rule="evenodd" d="M45.3213 36.8089C45.3213 38.3349 43.9268 39.5729 42.208 39.5729C40.4892 39.5729 39.0947 38.3349 39.0947 36.8089C39.0947 35.283 40.4892 34.0449 42.208 34.0449C43.9268 34.0449 45.3213 35.283 45.3213 36.8089ZM61.9255 42.3354V48.7846H39.0947V46.0207L44.2835 41.414L46.8779 43.7173L55.18 36.3467L61.9255 42.3354ZM63.4629 32.2002H37.5189C37.2432 32.2002 37 32.4161 37 32.6609V50.1661C37 50.4108 37.2432 50.6268 37.5189 50.6268H63.4629C63.7386 50.6268 63.9818 50.4108 63.9818 50.1661V32.6609C63.9818 32.4161 63.7386 32.2002 63.4629 32.2002Z" fill="#1C1D21"/>
</g>
</svg>
